<?xml version="1.0" encoding="UTF-8" standalone="no"?>
<!DOCTYPE svg PUBLIC "-//W3C//DTD SVG 1.1//EN"
 "http://www.w3.org/Graphics/SVG/1.1/DTD/svg11.dtd">
<!-- Generated by graphviz version 2.40.1 (20161225.0304)
 -->
<!-- Title: dependencies Pages: 1 -->
<svg width="2514pt" height="284pt"
 viewBox="0.00 0.00 2514.00 284.00" xmlns="http://www.w3.org/2000/svg" xmlns:xlink="http://www.w3.org/1999/xlink">
<g id="graph0" class="graph" transform="scale(1 1) rotate(0) translate(4 280)">
<title>dependencies</title>
<polygon fill="#ffffff" stroke="transparent" points="-4,4 -4,-280 2510,-280 2510,4 -4,4"/>
<text text-anchor="start" x="1232.0091" y="-42.4" font-family="sans-serif" font-weight="bold" font-size="14.00" fill="#000000">Legend</text>
<polygon fill="#ffffb3" stroke="transparent" points="1019,-10 1019,-30 1039,-30 1039,-10 1019,-10"/>
<text text-anchor="start" x="1042.629" y="-15.4" font-family="sans-serif" font-size="14.00" fill="#000000"> &#160;Declarations</text>
<polygon fill="#8dd3c7" stroke="transparent" points="1132,-10 1132,-30 1152,-30 1152,-10 1132,-10"/>
<text text-anchor="start" x="1155.7251" y="-15.4" font-family="sans-serif" font-size="14.00" fill="#000000"> &#160;Module</text>
<polygon fill="#80b1d3" stroke="transparent" points="1218,-10 1218,-30 1238,-30 1238,-10 1218,-10"/>
<text text-anchor="start" x="1241.7812" y="-15.4" font-family="sans-serif" font-size="14.00" fill="#000000"> &#160;Bootstrap</text>
<polygon fill="#fdb462" stroke="transparent" points="1315,-10 1315,-30 1335,-30 1335,-10 1315,-10"/>
<text text-anchor="start" x="1338.6732" y="-15.4" font-family="sans-serif" font-size="14.00" fill="#000000"> &#160;Providers</text>
<polygon fill="#fb8072" stroke="transparent" points="1411,-10 1411,-30 1431,-30 1431,-10 1411,-10"/>
<text text-anchor="start" x="1434.7258" y="-15.4" font-family="sans-serif" font-size="14.00" fill="#000000"> &#160;Exports</text>
<g id="clust1" class="cluster">
<title>cluster_AppModule</title>
<polygon fill="none" stroke="#000000" stroke-dasharray="1,5" points="8,-70 8,-268 2498,-268 2498,-70 8,-70"/>
</g>
<g id="clust2" class="cluster">
<title>cluster_AppModule_declarations</title>
<polygon fill="none" stroke="#000000" points="308,-78 308,-130 2490,-130 2490,-78 308,-78"/>
</g>
<g id="clust18" class="cluster">
<title>cluster_AppModule_imports</title>
<polygon fill="none" stroke="#000000" points="156,-78 156,-130 300,-130 300,-78 156,-78"/>
</g>
<g id="clust20" class="cluster">
<title>cluster_AppModule_bootstrap</title>
<polygon fill="none" stroke="#000000" points="1155,-208 1155,-260 1279,-260 1279,-208 1155,-208"/>
</g>
<g id="clust21" class="cluster">
<title>cluster_AppModule_providers</title>
<polygon fill="none" stroke="#000000" points="16,-78 16,-130 148,-130 148,-78 16,-78"/>
</g>
<!-- AppComponent -->
<g id="node1" class="node">
<title>AppComponent</title>
<polygon fill="#ffffb3" stroke="#000000" points="2481.9399,-122 2376.0601,-122 2376.0601,-86 2481.9399,-86 2481.9399,-122"/>
<text text-anchor="middle" x="2429" y="-99.8" font-family="Times,serif" font-size="14.00" fill="#000000">AppComponent</text>
</g>
<!-- AppModule -->
<g id="node16" class="node">
<title>AppModule</title>
<polygon fill="#8dd3c7" stroke="#000000" points="1258.6571,-187 1255.6571,-191 1234.6571,-191 1231.6571,-187 1175.3429,-187 1175.3429,-151 1258.6571,-151 1258.6571,-187"/>
<text text-anchor="middle" x="1217" y="-164.8" font-family="Times,serif" font-size="14.00" fill="#000000">AppModule</text>
</g>
<!-- AppComponent&#45;&gt;AppModule -->
<g id="edge1" class="edge">
<title>AppComponent&#45;&gt;AppModule</title>
<path fill="none" stroke="#000000" d="M2429,-122.3228C2429,-145.6602 2429,-183 2429,-183 2429,-183 1268.7198,-183 1268.7198,-183"/>
<polygon fill="#000000" stroke="#000000" points="1268.7198,-179.5001 1258.7198,-183 1268.7197,-186.5001 1268.7198,-179.5001"/>
</g>
<!-- ApplicationsComponent -->
<g id="node2" class="node">
<title>ApplicationsComponent</title>
<polygon fill="#ffffb3" stroke="#000000" points="2358.3753,-122 2205.6247,-122 2205.6247,-86 2358.3753,-86 2358.3753,-122"/>
<text text-anchor="middle" x="2282" y="-99.8" font-family="Times,serif" font-size="14.00" fill="#000000">ApplicationsComponent</text>
</g>
<!-- ApplicationsComponent&#45;&gt;AppModule -->
<g id="edge2" class="edge">
<title>ApplicationsComponent&#45;&gt;AppModule</title>
<path fill="none" stroke="#000000" d="M2282,-122.1554C2282,-144.3519 2282,-179 2282,-179 2282,-179 1268.7493,-179 1268.7493,-179"/>
<polygon fill="#000000" stroke="#000000" points="1268.7493,-175.5001 1258.7493,-179 1268.7492,-182.5001 1268.7493,-175.5001"/>
</g>
<!-- AppsComponent -->
<g id="node3" class="node">
<title>AppsComponent</title>
<polygon fill="#ffffb3" stroke="#000000" points="2187.3837,-122 2076.6163,-122 2076.6163,-86 2187.3837,-86 2187.3837,-122"/>
<text text-anchor="middle" x="2132" y="-99.8" font-family="Times,serif" font-size="14.00" fill="#000000">AppsComponent</text>
</g>
<!-- AppsComponent&#45;&gt;AppModule -->
<g id="edge3" class="edge">
<title>AppsComponent&#45;&gt;AppModule</title>
<path fill="none" stroke="#000000" d="M2132,-122.2843C2132,-143.3211 2132,-175 2132,-175 2132,-175 1268.6933,-175 1268.6933,-175"/>
<polygon fill="#000000" stroke="#000000" points="1268.6933,-171.5001 1258.6933,-175 1268.6933,-178.5001 1268.6933,-171.5001"/>
</g>
<!-- CardsComponent -->
<g id="node4" class="node">
<title>CardsComponent</title>
<polygon fill="#ffffb3" stroke="#000000" points="2058.9888,-122 1945.0112,-122 1945.0112,-86 2058.9888,-86 2058.9888,-122"/>
<text text-anchor="middle" x="2002" y="-99.8" font-family="Times,serif" font-size="14.00" fill="#000000">CardsComponent</text>
</g>
<!-- CardsComponent&#45;&gt;AppModule -->
<g id="edge4" class="edge">
<title>CardsComponent&#45;&gt;AppModule</title>
<path fill="none" stroke="#000000" d="M2002,-122.308C2002,-142.1455 2002,-171 2002,-171 2002,-171 1268.9275,-171 1268.9275,-171"/>
<polygon fill="#000000" stroke="#000000" points="1268.9275,-167.5001 1258.9275,-171 1268.9274,-174.5001 1268.9275,-167.5001"/>
</g>
<!-- CatFormComponent -->
<g id="node5" class="node">
<title>CatFormComponent</title>
<polygon fill="#ffffb3" stroke="#000000" points="1926.608,-122 1795.392,-122 1795.392,-86 1926.608,-86 1926.608,-122"/>
<text text-anchor="middle" x="1861" y="-99.8" font-family="Times,serif" font-size="14.00" fill="#000000">CatFormComponent</text>
</g>
<!-- CatFormComponent&#45;&gt;AppModule -->
<g id="edge5" class="edge">
<title>CatFormComponent&#45;&gt;AppModule</title>
<path fill="none" stroke="#000000" d="M1861,-122.2222C1861,-140.8285 1861,-167 1861,-167 1861,-167 1268.7584,-167 1268.7584,-167"/>
<polygon fill="#000000" stroke="#000000" points="1268.7585,-163.5001 1258.7584,-167 1268.7584,-170.5001 1268.7585,-163.5001"/>
</g>
<!-- CategoriesComponent -->
<g id="node6" class="node">
<title>CategoriesComponent</title>
<polygon fill="#ffffb3" stroke="#000000" points="1777.6993,-122 1636.3007,-122 1636.3007,-86 1777.6993,-86 1777.6993,-122"/>
<text text-anchor="middle" x="1707" y="-99.8" font-family="Times,serif" font-size="14.00" fill="#000000">CategoriesComponent</text>
</g>
<!-- CategoriesComponent&#45;&gt;AppModule -->
<g id="edge6" class="edge">
<title>CategoriesComponent&#45;&gt;AppModule</title>
<path fill="none" stroke="#000000" d="M1707,-122.0225C1707,-139.3734 1707,-163 1707,-163 1707,-163 1268.7771,-163 1268.7771,-163"/>
<polygon fill="#000000" stroke="#000000" points="1268.7772,-159.5001 1258.7771,-163 1268.7771,-166.5001 1268.7772,-159.5001"/>
</g>
<!-- EditToolComponent -->
<g id="node7" class="node">
<title>EditToolComponent</title>
<polygon fill="#ffffb3" stroke="#000000" points="1618.6094,-122 1487.3906,-122 1487.3906,-86 1618.6094,-86 1618.6094,-122"/>
<text text-anchor="middle" x="1553" y="-99.8" font-family="Times,serif" font-size="14.00" fill="#000000">EditToolComponent</text>
</g>
<!-- EditToolComponent&#45;&gt;AppModule -->
<g id="edge7" class="edge">
<title>EditToolComponent&#45;&gt;AppModule</title>
<path fill="none" stroke="#000000" d="M1553,-122.0091C1553,-138.0494 1553,-159 1553,-159 1553,-159 1268.8753,-159 1268.8753,-159"/>
<polygon fill="#000000" stroke="#000000" points="1268.8753,-155.5001 1258.8753,-159 1268.8752,-162.5001 1268.8753,-155.5001"/>
</g>
<!-- FeatureFormComponent -->
<g id="node8" class="node">
<title>FeatureFormComponent</title>
<polygon fill="#ffffb3" stroke="#000000" points="1469.6442,-122 1316.3558,-122 1316.3558,-86 1469.6442,-86 1469.6442,-122"/>
<text text-anchor="middle" x="1393" y="-99.8" font-family="Times,serif" font-size="14.00" fill="#000000">FeatureFormComponent</text>
</g>
<!-- FeatureFormComponent&#45;&gt;AppModule -->
<g id="edge8" class="edge">
<title>FeatureFormComponent&#45;&gt;AppModule</title>
<path fill="none" stroke="#000000" d="M1393,-122.1243C1393,-136.7832 1393,-155 1393,-155 1393,-155 1268.7095,-155 1268.7095,-155"/>
<polygon fill="#000000" stroke="#000000" points="1268.7096,-151.5001 1258.7095,-155 1268.7095,-158.5001 1268.7096,-151.5001"/>
</g>
<!-- FeatureSearchComponent -->
<g id="node9" class="node">
<title>FeatureSearchComponent</title>
<polygon fill="#ffffb3" stroke="#000000" points="1297.8975,-122 1136.1025,-122 1136.1025,-86 1297.8975,-86 1297.8975,-122"/>
<text text-anchor="middle" x="1217" y="-99.8" font-family="Times,serif" font-size="14.00" fill="#000000">FeatureSearchComponent</text>
</g>
<!-- FeatureSearchComponent&#45;&gt;AppModule -->
<g id="edge9" class="edge">
<title>FeatureSearchComponent&#45;&gt;AppModule</title>
<path fill="none" stroke="#000000" d="M1217,-122.1061C1217,-122.1061 1217,-140.991 1217,-140.991"/>
<polygon fill="#000000" stroke="#000000" points="1213.5001,-140.9909 1217,-150.991 1220.5001,-140.991 1213.5001,-140.9909"/>
</g>
<!-- FeaturesComponent -->
<g id="node10" class="node">
<title>FeaturesComponent</title>
<polygon fill="#ffffb3" stroke="#000000" points="1118.2548,-122 989.7452,-122 989.7452,-86 1118.2548,-86 1118.2548,-122"/>
<text text-anchor="middle" x="1054" y="-99.8" font-family="Times,serif" font-size="14.00" fill="#000000">FeaturesComponent</text>
</g>
<!-- FeaturesComponent&#45;&gt;AppModule -->
<g id="edge10" class="edge">
<title>FeaturesComponent&#45;&gt;AppModule</title>
<path fill="none" stroke="#000000" d="M1054,-122.1243C1054,-136.7832 1054,-155 1054,-155 1054,-155 1165.0234,-155 1165.0234,-155"/>
<polygon fill="#000000" stroke="#000000" points="1165.0235,-158.5001 1175.0234,-155 1165.0234,-151.5001 1165.0235,-158.5001"/>
</g>
<!-- FormComponent -->
<g id="node11" class="node">
<title>FormComponent</title>
<polygon fill="#ffffb3" stroke="#000000" points="971.6667,-122 860.3333,-122 860.3333,-86 971.6667,-86 971.6667,-122"/>
<text text-anchor="middle" x="916" y="-99.8" font-family="Times,serif" font-size="14.00" fill="#000000">FormComponent</text>
</g>
<!-- FormComponent&#45;&gt;AppModule -->
<g id="edge11" class="edge">
<title>FormComponent&#45;&gt;AppModule</title>
<path fill="none" stroke="#000000" d="M916,-122.0091C916,-138.0494 916,-159 916,-159 916,-159 1165.1472,-159 1165.1472,-159"/>
<polygon fill="#000000" stroke="#000000" points="1165.1473,-162.5001 1175.1472,-159 1165.1472,-155.5001 1165.1473,-162.5001"/>
</g>
<!-- HeaderComponent -->
<g id="node12" class="node">
<title>HeaderComponent</title>
<polygon fill="#ffffb3" stroke="#000000" points="841.7437,-122 720.2563,-122 720.2563,-86 841.7437,-86 841.7437,-122"/>
<text text-anchor="middle" x="781" y="-99.8" font-family="Times,serif" font-size="14.00" fill="#000000">HeaderComponent</text>
</g>
<!-- HeaderComponent&#45;&gt;AppModule -->
<g id="edge12" class="edge">
<title>HeaderComponent&#45;&gt;AppModule</title>
<path fill="none" stroke="#000000" d="M781,-122.0225C781,-139.3734 781,-163 781,-163 781,-163 1165.1945,-163 1165.1945,-163"/>
<polygon fill="#000000" stroke="#000000" points="1165.1945,-166.5001 1175.1945,-163 1165.1945,-159.5001 1165.1945,-166.5001"/>
</g>
<!-- HomeComponent -->
<g id="node13" class="node">
<title>HomeComponent</title>
<polygon fill="#ffffb3" stroke="#000000" points="701.5451,-122 586.4549,-122 586.4549,-86 701.5451,-86 701.5451,-122"/>
<text text-anchor="middle" x="644" y="-99.8" font-family="Times,serif" font-size="14.00" fill="#000000">HomeComponent</text>
</g>
<!-- HomeComponent&#45;&gt;AppModule -->
<g id="edge13" class="edge">
<title>HomeComponent&#45;&gt;AppModule</title>
<path fill="none" stroke="#000000" d="M644,-122.2222C644,-140.8285 644,-167 644,-167 644,-167 1165.3297,-167 1165.3297,-167"/>
<polygon fill="#000000" stroke="#000000" points="1165.3297,-170.5001 1175.3297,-167 1165.3297,-163.5001 1165.3297,-170.5001"/>
</g>
<!-- LoginComponent -->
<g id="node14" class="node">
<title>LoginComponent</title>
<polygon fill="#ffffb3" stroke="#000000" points="568.2758,-122 453.7242,-122 453.7242,-86 568.2758,-86 568.2758,-122"/>
<text text-anchor="middle" x="511" y="-99.8" font-family="Times,serif" font-size="14.00" fill="#000000">LoginComponent</text>
</g>
<!-- LoginComponent&#45;&gt;AppModule -->
<g id="edge14" class="edge">
<title>LoginComponent&#45;&gt;AppModule</title>
<path fill="none" stroke="#000000" d="M511,-122.308C511,-142.1455 511,-171 511,-171 511,-171 1165.2119,-171 1165.2119,-171"/>
<polygon fill="#000000" stroke="#000000" points="1165.2119,-174.5001 1175.2119,-171 1165.2118,-167.5001 1165.2119,-174.5001"/>
</g>
<!-- MenueComponent -->
<g id="node15" class="node">
<title>MenueComponent</title>
<polygon fill="#ffffb3" stroke="#000000" points="436.2064,-122 315.7936,-122 315.7936,-86 436.2064,-86 436.2064,-122"/>
<text text-anchor="middle" x="376" y="-99.8" font-family="Times,serif" font-size="14.00" fill="#000000">MenueComponent</text>
</g>
<!-- MenueComponent&#45;&gt;AppModule -->
<g id="edge15" class="edge">
<title>MenueComponent&#45;&gt;AppModule</title>
<path fill="none" stroke="#000000" d="M376,-122.2843C376,-143.3211 376,-175 376,-175 376,-175 1165.2947,-175 1165.2947,-175"/>
<polygon fill="#000000" stroke="#000000" points="1165.2947,-178.5001 1175.2947,-175 1165.2946,-171.5001 1165.2947,-178.5001"/>
</g>
<!-- AppComponent  -->
<g id="node18" class="node">
<title>AppComponent </title>
<polygon fill="#80b1d3" stroke="#000000" points="1271.439,-252 1162.561,-252 1162.561,-216 1271.439,-216 1271.439,-252"/>
<text text-anchor="middle" x="1217" y="-229.8" font-family="Times,serif" font-size="14.00" fill="#000000">AppComponent </text>
</g>
<!-- AppModule&#45;&gt;AppComponent  -->
<g id="edge17" class="edge">
<title>AppModule&#45;&gt;AppComponent </title>
<path fill="none" stroke="#000000" stroke-dasharray="1,5" d="M1217,-187.1061C1217,-187.1061 1217,-205.991 1217,-205.991"/>
<polygon fill="#000000" stroke="#000000" points="1213.5001,-205.9909 1217,-215.991 1220.5001,-205.991 1213.5001,-205.9909"/>
</g>
<!-- AppRoutingModule -->
<g id="node17" class="node">
<title>AppRoutingModule</title>
<polygon fill="#8dd3c7" stroke="#000000" points="292.2744,-122 289.2744,-126 268.2744,-126 265.2744,-122 163.7256,-122 163.7256,-86 292.2744,-86 292.2744,-122"/>
<text text-anchor="middle" x="228" y="-99.8" font-family="Times,serif" font-size="14.00" fill="#000000">AppRoutingModule</text>
</g>
<!-- AppRoutingModule&#45;&gt;AppModule -->
<g id="edge16" class="edge">
<title>AppRoutingModule&#45;&gt;AppModule</title>
<path fill="none" stroke="#000000" d="M228,-122.1554C228,-144.3519 228,-179 228,-179 228,-179 1165.1356,-179 1165.1356,-179"/>
<polygon fill="#000000" stroke="#000000" points="1165.1356,-182.5001 1175.1356,-179 1165.1356,-175.5001 1165.1356,-182.5001"/>
</g>
<!-- DataService -->
<g id="node19" class="node">
<title>DataService</title>
<ellipse fill="#fdb462" stroke="#000000" cx="82" cy="-104" rx="58.4415" ry="18"/>
<text text-anchor="middle" x="82" y="-99.8" font-family="Times,serif" font-size="14.00" fill="#000000">DataService</text>
</g>
<!-- DataService&#45;&gt;AppModule -->
<g id="edge18" class="edge">
<title>DataService&#45;&gt;AppModule</title>
<path fill="none" stroke="#000000" d="M82,-122.3228C82,-145.6602 82,-183 82,-183 82,-183 1165.2587,-183 1165.2587,-183"/>
<polygon fill="#000000" stroke="#000000" points="1165.2587,-186.5001 1175.2587,-183 1165.2586,-179.5001 1165.2587,-186.5001"/>
</g>
</g>
</svg>
